<svg version="1.1" width="188" height="125" viewBox="0 0 1350 800"
  xmlns="http://www.w3.org/2000/svg" xmlns:xlink="http://www.w3.org/1999/xlink">

  <style>
    .text { font: 100px sans-serif; }
  </style>

  <g>
    <use xlink:href="#tank" />
  </g>

  <defs>
    <symbol id="link0">
      <rect x="5" y="55" width="125" height="25" fill="#aaaaaa" />
      <rect x="10" y="70" width="116" height="35" fill="#666666" rx="10" ry="10" />
      <rect x="5" y="55" width="125" height="50" fill="none" stroke="black" stroke-width="10" rx="10" ry="10" />
    </symbol>

    <symbol id="link30">
      <rect x="5" y="55" width="125" height="25" fill="#939393" />
      <rect x="10" y="70" width="116" height="30" fill="#585858" rx="10" ry="10" />
      <rect x="5" y="55" width="125" height="42" fill="none" stroke="black" stroke-width="10" rx="10" ry="10" />
    </symbol>

    <symbol id="link60">
      <rect x="5" y="55" width="125" height="20" fill="#555555" />
      <rect x="5" y="55" width="125" height="20" fill="none" stroke="black" stroke-width="10" rx="10" ry="10" />
    </symbol>

    <symbol id="main-track">
      <rect x="20" y="75" width="95" height="450" fill="#333333" stroke="black" stroke-width="10" />
    </symbol>

    <symbol id="track3">
      <use xlink:href="#main-track" x="0" y="0" />
      <use xlink:href="#link0" x="0" y="7" />
      <use xlink:href="#link0" x="0" y="87" />
      <use xlink:href="#link0" x="0" y="167" />
      <use xlink:href="#link0" x="0" y="247" />
      <use xlink:href="#link0" x="0" y="327" />
      <use xlink:href="#link0" x="0" y="407" />
      <use xlink:href="#link60" x="0" y="470" />
    </symbol>

    <symbol id="body">
      <use xlink:href="#track3" x="50" y="200" />
      <use xlink:href="#track3" x="415" y="200" />

      <rect x="140" y="290" width="320" height="420" fill="#019" stroke="black" stroke-width="20" rx="10" ry="10" />
      <rect x="150" y="620" width="300" height="80" fill="black" opacity="0.5" />
    </symbol>

    <symbol id="turret">
      <rect x="400" y="420" width="200" height="200" fill="#06C" stroke="black" stroke-width="20" rx="10" ry="10" />
      <rect x="410" y="560" width="180" height="50" fill="black" opacity="0.5" />

      <rect x="460" y="340" width="80" height="80" fill="url(#cannon-grad)" stroke="black" stroke-width="20" />
      <rect x="475" y="170" width="50" height="170" fill="url(#cannon-grad)" stroke="black" stroke-width="20" />

      <linearGradient id="cannon-grad" x1="0%" y1="0%" x2="100%" y2="0%">
        <stop offset="0%" stop-color="#333" />
        <stop offset="50%" stop-color="#CCC" />
        <stop offset="100%" stop-color="#333" />
      </linearGradient>
    </symbol>

    <symbol id="radar">
      <circle cx="500" cy="500" r="30" fill="#AAF" stroke="black" stroke-width="20" />
      <path d="M 390 520 q 110 100 220 0 z" fill="#AAF" stroke="black" stroke-width="20" />
    </symbol>

    <symbol id="tank">
      <use xlink:href="#body" transform="rotate(10,400,400)" />
      <use xlink:href="#turret" transform="rotate(90,400,400)" />
      <use xlink:href="#radar" transform="rotate(90,400,400)" />
      <use xlink:href="#arrows-with-label" />
    </symbol>

    <marker id="arrow-head" markerWidth="20" markerHeight="20" refX="6" refY="3" orient="auto">
      <polygon points="6 0, 12 3, 6 6" fill="#FF0B"/>
    </marker>

    <symbol id="arrows-with-label">
      <line x1="300" y1="505" x2="370" y2="150" stroke="#FF0B" stroke-width="10" marker-end="url(#arrow-head)" />
      <text x="0" y="80" class="text" fill="#FF0B">Body Heading (80°)</text>

      <line x1="300" y1="500" x2="800" y2="500" stroke="#FF0B" stroke-width="10" marker-end="url(#arrow-head)" />
      <text x="560" y="640" class="text" fill="#FF0B">Gun Heading (0°)</text>
    </symbol>
  </defs>
</svg>
