<svg version="1.1" width="188" height="125" viewBox="0 0 1500 1000"
     xmlns="http://www.w3.org/2000/svg" xmlns:xlink="http://www.w3.org/1999/xlink">

    <style>
        .text { font: 100px sans-serif; }
    </style>

    <g>
        <use xlink:href="#tank" transform="translate(-100, 210)" />
        <use xlink:href="#arrows-with-label" transform="translate(0, 10)"/>
    </g>

    <defs>
        <symbol id="link0">
            <rect x="5" y="55" width="125" height="25" fill="#aaaaaa" />
            <rect x="10" y="70" width="116" height="35" fill="#666666" rx="10" ry="10" />
            <rect x="5" y="55" width="125" height="50" fill="none" stroke="black" stroke-width="10" rx="10" ry="10" />
        </symbol>

        <symbol id="link30">
            <rect x="5" y="55" width="125" height="25" fill="#939393" />
            <rect x="10" y="70" width="116" height="30" fill="#585858" rx="10" ry="10" />
            <rect x="5" y="55" width="125" height="42" fill="none" stroke="black" stroke-width="10" rx="10" ry="10" />
        </symbol>

        <symbol id="link60">
            <rect x="5" y="55" width="125" height="20" fill="#555555" />
            <rect x="5" y="55" width="125" height="20" fill="none" stroke="black" stroke-width="10" rx="10" ry="10" />
        </symbol>

        <symbol id="main-track">
            <rect x="20" y="75" width="95" height="450" fill="#333333" stroke="black" stroke-width="10" />
        </symbol>

        <symbol id="track2">
            <use xlink:href="#main-track" x="0" y="0" />
            <use xlink:href="#link60" x="0" y="0" />
            <use xlink:href="#link0" x="0" y="33" />
            <use xlink:href="#link0" x="0" y="113" />
            <use xlink:href="#link0" x="0" y="193" />
            <use xlink:href="#link0" x="0" y="273" />
            <use xlink:href="#link0" x="0" y="353" />
            <use xlink:href="#link0" x="0" y="433" />
        </symbol>

        <symbol id="track3">
            <use xlink:href="#main-track" x="0" y="0" />
            <use xlink:href="#link0" x="0" y="7" />
            <use xlink:href="#link0" x="0" y="87" />
            <use xlink:href="#link0" x="0" y="167" />
            <use xlink:href="#link0" x="0" y="247" />
            <use xlink:href="#link0" x="0" y="327" />
            <use xlink:href="#link0" x="0" y="407" />
            <use xlink:href="#link60" x="0" y="470" />
        </symbol>

        <symbol id="body">
            <use xlink:href="#track2" x="150" y="100" />
            <use xlink:href="#track3" x="515" y="100" />

            <rect x="240" y="190" width="320" height="420" fill="#019" stroke="black" stroke-width="20" rx="10" ry="10" />
        </symbol>

        <symbol id="turret">
            <rect x="300" y="320" width="200" height="200" fill="#06C" stroke="black" stroke-width="20" rx="10" ry="10" />
            <rect x="310" y="460" width="180" height="50" fill="black" opacity="0.5" />

            <rect x="360" y="240" width="80" height="80" fill="url(#cannon-grad)" stroke="black" stroke-width="20" />
            <rect x="375" y="70" width="50" height="170" fill="url(#cannon-grad)" stroke="black" stroke-width="20" />

            <linearGradient id="cannon-grad" x1="0%" y1="0%" x2="100%" y2="0%">
                <stop offset="0%" stop-color="#333" />
                <stop offset="50%" stop-color="#CCC" />
                <stop offset="100%" stop-color="#333" />
            </linearGradient>
        </symbol>

        <symbol id="radar">
            <circle cx="400" cy="400" r="30" fill="#AAF" stroke="black" stroke-width="20" />
            <path d="M 290 420 q 110 100 220 0 z" fill="#AAF" stroke="black" stroke-width="20" />
        </symbol>

        <symbol id="tank">
            <use xlink:href="#body" transform="rotate(10,400,400)" />
            <use xlink:href="#turret" transform="rotate(80,400,400)" />
            <use xlink:href="#radar" transform="rotate(127,400,400)" />

        </symbol>

        <symbol id="arrows-with-label">
            <marker id="arrow-head" markerWidth="20" markerHeight="20" refX="6" refY="3" orient="auto">
                <polygon points="6 0, 12 3, 6 6" fill="#FF0B"/>
            </marker>

            <line x1="300" y1="605" x2="370" y2="250" stroke="#FF0B" stroke-width="10" marker-end="url(#arrow-head)" />
            <text x="0" y="130" class="text" fill="#FF0B">Body Heading (80°)</text>

            <line x1="300" y1="600" x2="800" y2="512" stroke="#FF0B" stroke-width="10" marker-end="url(#arrow-head)" />
            <text x="570" y="700" class="text" fill="#FF0B">Gun Heading (10°)</text>
        </symbol>
    </defs>
</svg>
